# xmcd
#
# Track frame offsets:
#	150
#	15729
#	30195
#	45026
#	53633
#	64387
#	81402
#	98472
#	111435
#	127271
#	142471
#	157405
#	176407
#	198210
#	216353
#	228592
#
# Disc length: 3282 seconds
#
# Revision: 1
# Processed by: cddbd v1.5.1PL0 Copyright (c) Steve Scherf et al.
# Submitted via: audiograbber 1.83.01
#
DISCID=e40cd010
DTITLE=Divokej Bill - Svata pravda
DYEAR=2001
DGENRE=
TTITLE0=Sibenice
TTITLE1=Bill
TTITLE2=Mrtvej
TTITLE3=Obejmi stromy
TTITLE4=Kral
TTITLE5=Milacku
TTITLE6=Zapad
TTITLE7=Svata pravda
TTITLE8=Cizak
TTITLE9=Stredovek
TTITLE10=Medvedar
TTITLE11=Cesta
TTITLE12=Bechovice
TTITLE13=Stroj
TTITLE14=Svetlo
TTITLE15=Olgoj
EXTD=
EXTT0=
EXTT1=
EXTT2=
EXTT3=
EXTT4=
EXTT5=
EXTT6=
EXTT7=
EXTT8=
EXTT9=
EXTT10=
EXTT11=
EXTT12=
EXTT13=
EXTT14=
EXTT15=
PLAYORDER=
